HIERARCHY
ROOT Model_Hips
{
	OFFSET 0.000000 96.915077 0.000000
	CHANNELS 6 Xposition Yposition Zposition Xrotation Yrotation Zrotation
	JOINT Model_Spine
	{
		OFFSET 0.000000 11.137703 -1.289900
		CHANNELS 3 Xrotation Yrotation Zrotation
		JOINT Model_Spine1
		{
			OFFSET 0.000000 12.993942 -1.504922
			CHANNELS 3 Xrotation Yrotation Zrotation
			JOINT Model_Spine2
			{
				OFFSET 0.000000 14.850220 -1.719911
				CHANNELS 3 Xrotation Yrotation Zrotation
				JOINT Model_Neck
				{
					OFFSET 0.000000 16.706543 -1.934903
					CHANNELS 3 Xrotation Yrotation Zrotation
					JOINT Model_Head
					{
						OFFSET 0.000000 10.471298 2.002100
						CHANNELS 3 Xrotation Yrotation Zrotation
						JOINT Model_HeadTop_End
						{
							OFFSET 0.000000 20.842606 3.985100
							CHANNELS 3 Xrotation Yrotation Zrotation
							End Site
							{
								OFFSET 0.000000 21.220154 0.000000
							}
						}
					}
				}
				JOINT Model_LeftShoulder
				{
					OFFSET 7.008500 14.768600 -1.919946
					CHANNELS 3 Xrotation Yrotation Zrotation
					JOINT Model_LeftArm
					{
						OFFSET 14.126271 -3.718048 0.029937
						CHANNELS 3 Xrotation Yrotation Zrotation
						JOINT Model_LeftForeArm
						{
							OFFSET 28.282801 0.000000 0.000000
							CHANNELS 3 Xrotation Yrotation Zrotation
							JOINT Model_LeftHand
							{
								OFFSET 26.204689 0.000000 0.000000
								CHANNELS 3 Xrotation Yrotation Zrotation
								End Site
								{
									OFFSET 26.204704 0.000000 0.000000
								}
							}
						}
					}
				}
				JOINT Model_RightShoulder
				{
					OFFSET -7.008500 14.768555 -1.949840
					CHANNELS 3 Xrotation Yrotation Zrotation
					JOINT Model_RightArm
					{
						OFFSET -14.126281 -3.718018 -0.029932
						CHANNELS 3 Xrotation Yrotation Zrotation
						JOINT Model_RightForeArm
						{
							OFFSET -28.283798 0.000000 -0.000001
							CHANNELS 3 Xrotation Yrotation Zrotation
							JOINT Model_RightHand
							{
								OFFSET -26.204193 0.000000 -0.000001
								CHANNELS 3 Xrotation Yrotation Zrotation
								End Site
								{
									OFFSET -26.204208 0.000000 -0.000001
								}
							}
						}
					}
				}
			}
		}
	}
	JOINT Model_LeftUpLeg
	{
		OFFSET 8.327700 -6.193199 -0.402800
		CHANNELS 3 Xrotation Yrotation Zrotation
		JOINT Model_LeftLeg
		{
			OFFSET 0.735802 -42.108742 -0.610721
			CHANNELS 3 Xrotation Yrotation Zrotation
			JOINT Model_LeftFoot
			{
				OFFSET -0.735806 -36.833748 -0.172876
				CHANNELS 3 Xrotation Yrotation Zrotation
				JOINT Model_LeftToeBase
				{
					OFFSET -0.565857 -11.977769 16.297714
					CHANNELS 3 Xrotation Yrotation Zrotation
					JOINT Model_LeftToe_End
					{
						OFFSET -0.111712 -0.312793 7.857784
						CHANNELS 3 Xrotation Yrotation Zrotation
						End Site
						{
							OFFSET -0.111712 -0.312793 7.857784
						}
					}
				}
			}
		}
	}
	JOINT Model_RightUpLeg
	{
		OFFSET -8.327700 -6.193199 -0.516500
		CHANNELS 3 Xrotation Yrotation Zrotation
		JOINT Model_RightLeg
		{
			OFFSET -0.735785 -42.108738 -0.434061
			CHANNELS 3 Xrotation Yrotation Zrotation
			JOINT Model_RightFoot
			{
				OFFSET 0.735776 -36.833748 -0.021630
				CHANNELS 3 Xrotation Yrotation Zrotation
				JOINT Model_RightToeBase
				{
					OFFSET 0.565817 -11.977745 15.903093
					CHANNELS 3 Xrotation Yrotation Zrotation
					JOINT Model_RightToe_End
					{
						OFFSET 0.111702 -0.312791 7.811342
						CHANNELS 3 Xrotation Yrotation Zrotation
						End Site
						{
							OFFSET 0.111702 -0.312791 7.811342
						}
					}
				}
			}
		}
	}
}
MOTION
Frames: 10
Frame Time: 0.016667
-14.205378 95.911530 78.955101 -4.090401 -24.122174 1.058664 5.594859 1.473455 -0.169670 0.392560 0.404022 -0.179194 0.393003 0.406390 -0.180697 -1.679175 -0.678495 -0.686959 -1.679033 -0.682757 -0.682815 -0.000000 -0.000000 0.000000 1.055380 2.487288 -18.407462 7.329686 4.550116 -63.842905 -0.000009 -10.083086 -0.000019 -0.000001 -0.000000 0.000000 0.677299 2.357475 18.841034 -4.525808 16.000724 57.437397 0.000008 15.740815 0.000012 -0.000000 -0.000000 0.000000 -21.185597 4.772223 4.077985 44.377870 3.430675 2.231607 -2.863509 0.393046 -6.069990 -8.514081 0.186443 -1.953624 0.000001 -0.000001 0.000000 -2.736655 -4.423237 6.272476 22.557055 7.930066 -1.342638 -12.009100 2.026262 -10.385346 -4.051813 -0.000019 -0.000003 0.000000 -0.000001 0.000000 
-14.684458 95.812790 80.814507 -3.939634 -24.908754 0.938118 5.573950 1.692960 -0.122149 0.395390 0.461639 -0.169956 0.395977 0.463774 -0.171629 -1.706224 -0.695786 -0.669238 -1.706015 -0.699669 -0.665266 0.000000 -0.000001 0.000000 1.051888 2.570558 -18.221637 8.621045 5.702032 -64.657993 0.000002 -9.463598 -0.000024 0.000001 0.000000 0.000000 0.652132 2.669078 18.851450 -5.755965 17.552430 56.555319 0.000006 17.514222 -0.000023 -0.000001 0.000001 0.000001 -22.343255 4.679333 4.468403 39.435272 4.696561 2.493466 -2.605035 0.418440 -6.573806 -2.542336 0.000000 0.000001 0.000000 -0.000000 -0.000000 -1.476815 -4.740286 6.049680 22.637076 9.206094 -1.338646 -13.222303 2.123894 -10.573598 -4.304004 0.000003 -0.000002 0.000000 0.000001 0.000000 
-15.165010 95.636475 82.666946 -3.784262 -25.633850 0.761392 5.571056 1.875432 -0.022741 0.398070 0.507480 -0.152031 0.398872 0.509363 -0.153834 -1.742473 -0.714679 -0.639149 -1.742386 -0.717973 -0.635320 0.000000 0.000000 -0.000000 1.045965 2.637088 -18.021003 9.850500 6.691656 -65.419374 -0.000004 -8.786906 0.000008 0.000000 -0.000000 -0.000001 0.622241 3.038452 18.885635 -6.940367 18.889628 55.647091 -0.000002 19.315983 -0.000003 0.000001 0.000000 -0.000000 -23.039307 4.672932 4.939867 33.546300 6.061320 2.785341 -1.948841 0.409458 -7.072427 -1.993443 0.000014 -0.000003 0.000000 0.000001 -0.000000 -0.267348 -5.021772 5.870426 22.826120 9.886359 -1.318218 -14.580856 2.716985 -10.714084 -5.094291 0.000001 0.000001 0.000000 -0.000002 0.000000 
-15.652715 95.396011 84.519722 -3.549165 -26.348554 0.556124 5.509799 2.059507 0.117959 0.391979 0.553140 -0.123356 0.393119 0.554500 -0.125180 -1.786905 -0.733007 -0.604618 -1.786921 -0.735709 -0.600968 0.000000 0.000000 -0.000000 1.041324 2.700412 -17.851159 10.972400 7.567091 -66.100474 -0.000006 -8.052659 0.000020 -0.000000 0.000000 0.000000 0.592493 3.403115 18.898572 -8.101421 20.098735 54.766321 0.000005 21.073210 -0.000005 0.000001 0.000001 0.000002 -23.216528 4.710808 5.435867 26.516498 7.307789 3.118192 -0.779704 0.339287 -7.346455 -1.890659 0.000001 0.000001 -0.000000 0.000000 -0.000000 0.861249 -5.243073 5.745666 23.017287 9.907857 -1.300930 -16.015762 3.848325 -10.685183 -5.621588 0.000028 -0.000003 0.000000 -0.000001 0.000000 
-16.161800 95.105309 86.377258 -3.190770 -27.053761 0.330412 5.344169 2.227587 0.304210 0.372045 0.594869 -0.079478 0.373702 0.595536 -0.081152 -1.840229 -0.746812 -0.575537 -1.840339 -0.748919 -0.572158 0.000000 -0.000000 -0.000000 1.042883 2.791028 -17.756320 11.957418 8.369414 -66.657285 0.000014 -7.309295 0.000019 -0.000002 0.000000 -0.000000 0.567042 3.715086 18.883484 -9.283125 21.271927 53.947542 0.000009 22.645443 0.000008 -0.000001 -0.000001 0.000001 -22.625744 4.782561 5.912169 17.828833 7.686960 3.510210 1.151336 0.822913 -7.411869 -2.240980 -0.000015 -0.000001 0.000001 0.000000 -0.000000 1.920475 -5.361326 5.692846 23.103419 9.928617 -1.244602 -17.422441 4.848739 -10.647012 -5.484233 -0.000025 -0.000001 -0.000000 0.000002 0.000000 
-16.702148 94.779640 88.245956 -2.729924 -27.706061 0.064433 5.088424 2.340883 0.548202 0.341974 0.620525 -0.022376 0.344271 0.620284 -0.023724 -1.902375 -0.753518 -0.554632 -1.902491 -0.754486 -0.551395 -0.000000 -0.000003 0.000000 1.051130 2.916491 -17.733343 12.812016 9.095757 -67.060778 -0.000009 -6.624026 -0.000029 -0.000000 0.000001 0.000000 0.548048 3.948327 18.874188 -10.517038 22.445883 53.204254 0.000003 23.908037 0.000014 -0.000002 0.000001 0.000001 -22.869290 4.892770 6.554995 11.068113 7.692898 3.710338 6.956145 1.293458 -6.939971 -2.612649 0.000011 0.000001 0.000000 0.000002 0.000000 2.953917 -5.367090 5.756828 23.046392 9.948405 -1.179319 -18.719523 5.666198 -10.573419 -5.429451 0.000012 0.000001 0.000000 0.000000 0.000000 
-17.292425 94.111183 90.265984 -2.251414 -28.262093 -0.202838 4.545463 2.382806 0.890627 0.439751 0.620998 -0.012765 0.443281 0.618377 -0.011547 -1.963433 -0.756918 -0.537301 -1.963709 -0.758058 -0.534490 0.000000 -0.000001 0.000000 1.060639 3.036723 -17.737404 13.575399 9.726606 -67.318529 0.000017 -6.049919 -0.000016 0.000000 0.000001 -0.000000 0.535491 4.099476 18.904645 -11.816777 23.573858 52.560082 0.000002 24.798641 -0.000003 0.000000 -0.000001 -0.000001 -23.570616 5.034885 7.271480 5.643763 7.528269 3.764469 3.988045 1.739124 -7.650136 -2.761226 0.000011 0.000001 -0.000001 0.000000 -0.000000 3.220416 -5.394646 5.773767 24.930525 9.971187 -1.133250 -21.107257 6.370112 -10.624436 -5.601332 -0.000008 -0.000002 0.000000 0.000001 0.000000 
-17.924124 93.490845 92.332062 -1.862937 -28.737307 -0.454240 4.013978 2.385713 1.165060 0.562608 0.614233 -0.020663 0.567166 0.611179 -0.017274 -2.007343 -0.763560 -0.519495 -2.007733 -0.764287 -0.516798 -0.000000 -0.000001 -0.000000 1.064289 3.087682 -17.728799 14.296632 10.271373 -67.460911 -0.000011 -5.611533 0.000009 -0.000001 0.000000 -0.000001 0.527516 4.190443 18.972232 -13.173760 24.553813 52.070780 0.000001 25.316381 0.000008 0.000000 0.000000 -0.000000 -24.907125 5.288491 8.152297 2.128150 7.246207 3.367229 1.017180 1.522007 -8.421820 -2.943301 -0.000002 -0.000006 -0.000000 -0.000002 -0.000001 3.930074 -5.429317 5.750057 26.104172 9.896202 -1.101650 -23.065142 7.114387 -10.459744 -5.871566 -0.000004 0.000003 0.000000 -0.000002 0.000000 
-18.564493 93.078232 94.371689 -1.627098 -29.185419 -0.649838 3.736630 2.413225 1.251657 0.614090 0.620972 -0.027637 0.619060 0.617498 -0.023085 -2.025083 -0.777411 -0.506327 -2.025544 -0.777891 -0.503646 -0.000000 -0.000001 -0.000000 1.059085 3.038622 -17.696079 14.996208 10.779440 -67.517991 -0.000001 -5.298581 -0.000021 0.000000 0.000001 -0.000001 0.521637 4.254432 19.037312 -14.552582 25.291764 51.809727 0.000007 25.503460 0.000014 0.000001 -0.000004 -0.000003 -27.405731 5.830154 9.357811 2.276197 6.748639 1.968527 -1.660014 0.500652 -9.345920 -3.507080 -0.000007 0.000003 -0.000003 0.000000 -0.000000 5.326771 -5.507631 5.608299 25.947303 9.796263 -1.089385 -24.136502 7.883477 -10.019426 -6.387555 -0.000008 -0.000002 0.000000 0.000001 0.000000 
-19.193581 92.763023 96.414757 -1.522402 -29.641699 -0.762770 3.657991 2.496444 1.194087 0.617437 0.647088 -0.045044 0.622445 0.643909 -0.040155 -2.026709 -0.797692 -0.508330 -2.027169 -0.798096 -0.505654 -0.000000 0.000000 0.000000 1.048824 2.931372 -17.650129 15.639748 11.280417 -67.493505 -0.000005 -5.077178 0.000002 -0.000000 0.000000 -0.000000 0.516275 4.317173 19.050735 -15.889728 25.753752 51.815557 -0.000013 25.445002 0.000019 -0.000001 0.000002 0.000000 -29.301450 6.259411 10.328925 2.505125 3.850591 0.578473 -3.911628 0.828135 -10.130429 -4.406453 0.000006 -0.000014 0.000000 -0.000001 -0.000002 6.981008 -5.615719 5.317310 25.370683 9.678723 -1.155167 -24.771361 8.608758 -9.410934 -7.258830 -0.000003 -0.000000 0.000000 0.000000 0.000000 
